<?xml version="1.0" encoding="UTF-8" standalone="no"?>
<svg xmlns:ffdec="https://www.free-decompiler.com/flash" xmlns:xlink="http://www.w3.org/1999/xlink" ffdec:objectType="shape" height="83.5px" width="75.25px" xmlns="http://www.w3.org/2000/svg">
  <g transform="matrix(5.0, 0.0, 0.0, 5.0, 37.5, 39.5)">
    <path d="M0.05 8.3 L-7.0 5.55 -7.0 1.9 0.0 4.7 0.05 8.3" fill="#999999" fill-rule="evenodd" stroke="none"/>
    <path d="M-7.0 1.9 L-1.0 -1.05 7.05 1.55 0.0 4.7 -7.0 1.9" fill="#ffffff" fill-rule="evenodd" stroke="none"/>
    <path d="M7.05 1.55 L7.05 4.7 0.05 8.3 0.0 4.7 7.05 1.55" fill="#666666" fill-rule="evenodd" stroke="none"/>
    <path d="M7.05 1.55 L7.05 4.7 0.05 8.3 -7.0 5.55 -7.0 1.9 -1.0 -1.05 7.05 1.55 Z" fill="none" stroke="#333333" stroke-linecap="round" stroke-linejoin="round" stroke-width="1.0"/>
    <path d="M2.1 1.6 Q2.1 2.05 1.5 2.4 L0.0 2.7 -1.5 2.4 -2.15 1.6 -1.85 1.05 -1.5 0.85 0.0 0.55 1.5 0.85 1.8 1.05 2.1 1.6" fill="#999999" fill-rule="evenodd" stroke="none"/>
    <path d="M2.1 1.6 Q2.1 2.05 1.5 2.4 L0.0 2.7 -1.5 2.4 -2.15 1.6 -1.85 1.05 -1.5 0.85 0.0 0.55 1.5 0.85 1.8 1.05 2.1 1.6 Z" fill="none" stroke="#666666" stroke-linecap="round" stroke-linejoin="round" stroke-width="1.0"/>
    <path d="M-0.1 1.05 L-0.1 -2.6" fill="none" stroke="#000000" stroke-linecap="round" stroke-linejoin="round" stroke-width="2.0"/>
    <path d="M2.05 1.45 L2.05 1.4 Q2.1 0.95 2.6 0.9 L3.45 1.0 3.7 1.45 3.55 1.95 Q2.9 2.3 2.3 1.95 L2.05 1.45" fill="#ff0000" fill-rule="evenodd" stroke="none"/>
    <path d="M3.45 1.0 L3.95 1.6 4.05 2.0 Q4.05 2.8 3.2 2.9 L2.15 2.75 Q1.8 2.6 1.8 2.2 1.8 1.75 2.05 1.45 L2.3 1.95 Q2.9 2.3 3.55 1.95 L3.7 1.45 3.45 1.0" fill="#990000" fill-rule="evenodd" stroke="none"/>
    <path d="M-0.15 0.4 L-1.0 0.25 -1.7 -0.15 -1.8 -6.6 -0.15 -7.4 -0.15 0.4" fill="#cccccc" fill-rule="evenodd" stroke="none"/>
    <path d="M-0.15 -7.4 L1.6 -6.8 1.1 0.2 -0.15 0.4 -0.15 -7.4" fill="#666666" fill-rule="evenodd" stroke="none"/>
    <path d="M-0.15 0.4 L-1.0 0.25 -1.7 -0.15 -1.8 -6.6 -0.15 -7.4 1.6 -6.8 1.1 0.2 -0.15 0.4 Z" fill="none" stroke="#333333" stroke-linecap="round" stroke-linejoin="round" stroke-width="1.0"/>
  </g>
</svg>
